<svg xmlns="http://www.w3.org/2000/svg" width="156" height="139" viewBox="0 0 156 139" xmlns:xlink="http://www.w3.org/1999/xlink" alt="Welcome">
  <defs>
    <rect id="a" width="7.219" height="26.437" x="20.891" y="33.264" rx="1.2"></rect>
    <mask id="b" width="7.219" height="26.437" x="0" y="0" fill="white">
      <use xlink:href="#a"></use>
    </mask>
  </defs>
  <g fill="none" fill-rule="evenodd" transform="translate(1)">
    <path fill="#DAE1E7" d="M69.3381411,128.715697 C71.8130215,126.395729 75.142716,124.97479 78.8046875,124.97479 C84.7494734,124.97479 89.8185846,128.719498 91.776489,133.976065 C92.0862033,134.058911 92.3835931,134.139046 92.6673703,134.215989 C93.1727843,125.045422 100.778088,117.764706 110.085938,117.764706 C113.971622,117.764706 117.560594,119.033556 120.460178,121.179052 C122.187844,118.753328 124.680083,116.908666 127.585772,115.995765 C127.549681,115.588824 127.53125,115.176814 127.53125,114.760504 C127.53125,108.213534 132.089428,102.729906 138.208979,101.302825 C142.172798,92.3759359 144.375,82.4952553 144.375,72.1008403 C144.375,32.2806458 112.055555,0 72.1875,0 C32.3194446,0 0,32.2806458 0,72.1008403 C0,81.5053395 1.80272083,90.4892961 5.08184712,98.7267865 C5.77535451,98.6026228 6.48947484,98.5378151 7.21875,98.5378151 C13.0399214,98.5378151 17.8955112,102.666998 19.0096495,108.152826 C19.0896419,108.151784 19.1697598,108.151261 19.25,108.151261 C28.8536392,108.151261 36.7052199,115.643709 37.2649567,125.095471 C37.8658392,125.015872 38.4788975,124.97479 39.1015625,124.97479 C44.7227436,124.97479 49.5609902,128.322907 51.7263315,133.131441 C53.4409238,131.654558 55.5222239,130.590728 57.8153191,130.09468 C58.2452529,127.19765 60.7455386,124.97479 63.765625,124.97479 C66.2847298,124.97479 68.4421827,126.521346 69.3381411,128.715697 Z" transform="translate(4.813)"></path>
    <g stroke="#2E3D49" transform="translate(0 16.824)">
      <path fill="#FFAE0C" stroke-width="2.4" d="M13.399191,38.5513231 C12.7733063,37.556517 11.8905574,36.7766277 10.8580958,36.3309254 C9.96800258,35.811287 8.93224476,35.513499 7.82685122,35.513499 C5.23358158,35.513499 3.02357197,37.1524603 2.17850474,39.4498791 C1.85925649,39.4083977 1.53369241,39.3870016 1.203125,39.3870016 C1.12067291,39.3870016 1.0385321,39.3883327 0.956722924,39.3909746 L7.29236668,0.664759521 L24.3570934,0.664759521 L30.4769925,38.0722489 C28.1455587,36.4588314 25.3154848,35.513499 22.2643512,35.513499 C18.922541,35.513499 15.8459167,36.647532 13.399191,38.5513231 Z" transform="translate(60.751 72.638)"></path>
      <g transform="translate(51.734)">
        <g stroke-width="2.4" transform="translate(2.694)">
          <g transform="translate(6.016 30.042)">
            <rect width="5.846" height="3.886" x=".059" y="1.048"></rect>
            <rect width="5.846" height="3.886" x=".059" y="13.679"></rect>
            <rect width="5.846" height="3.886" x="25.39" y="13.679"></rect>
            <rect width="3.897" height="3.886" x="26.364" y="1.048"></rect>
          </g>
          <path fill="#02B3E4" d="M10.9785156,17.6566947 C10.9785156,5.57579832 20.3942765,5.56661704e-16 21.8066406,0 C23.2190048,-5.56661695e-16 32.6347656,5.57579832 32.6347656,17.6566947 L32.6347656,68.4876996 C32.6347656,69.1558423 32.0994396,69.697479 31.439584,69.697479 L12.1736972,69.697479 C11.5136166,69.697479 10.9785156,69.1654618 10.9785156,68.4876996 L10.9785156,17.6566947 Z" stroke-linejoin="round"></path>
          <path fill="#91DAEE" d="M.150390625 22.152722C.150390625 15.3815126 3.75976562 14.4201681 3.75976562 14.4201681 3.75976562 14.4201681 7.36914062 15.3815126 7.36914062 22.152722L7.36914062 70.8909098C7.36914062 71.559136 6.82656111 72.1008403 6.17711088 72.1008403L1.34242037 72.1008403C.68408052 72.1008403.150390625 71.5569227.150390625 70.8909098L.150390625 22.152722zM36.2441406 22.152722C36.2441406 15.3815126 39.8535156 14.4201681 39.8535156 14.4201681 39.8535156 14.4201681 43.4628906 15.3815126 43.4628906 22.152722L43.4628906 70.8909098C43.4628906 71.559136 42.9203111 72.1008403 42.2708609 72.1008403L37.4361704 72.1008403C36.7778305 72.1008403 36.2441406 71.5569227 36.2441406 70.8909098L36.2441406 22.152722z" stroke-linejoin="round"></path>
        </g>
        <g transform="translate(0 19.201)">
          <path fill="#FAFBFC" stroke-width="2.4" d="M17.2818444,11.6726265 C17.2818444,7.79027355 22.0943444,0.0255676739 24.5005944,0.0255676739 C26.9068444,0.0255676739 31.7193444,7.79027356 31.7193444,11.6726265 L31.7193444,43.2960796 C31.7193444,47.2725719 28.4972575,50.4961559 24.5217431,50.4961559 L24.4794458,50.4961559 C20.5043203,50.4961559 17.2818444,47.2694647 17.2818444,43.2960796 L17.2818444,11.6726265 Z" stroke-linejoin="round"></path>
          <ellipse cx="24.501" cy="16.849" fill="#F95C3C" stroke-width="2.4" rx="2.406" ry="2.403"></ellipse>
          <polygon fill="#FAFBFC" stroke-width="2.4" points=".438 41.924 17.282 21.656 17.282 48.093 .438 48.093" stroke-linecap="round" stroke-linejoin="round"></polygon>
          <polygon fill="#FAFBFC" stroke-width="2.4" points="31.719 41.924 48.563 21.656 48.563 48.093 31.719 48.093" stroke-linecap="round" stroke-linejoin="round" transform="matrix(-1 0 0 1 80.282 0)"></polygon>
          <use fill="#7D97AD" stroke-width="4.8" mask="url(#b)" xlink:href="#a"></use>
          <rect width="9.625" height="14.42" x="12.469" y="36.076" fill="#DBE2E8" stroke-width="2.4" rx="1.2"></rect>
          <rect width="9.625" height="14.42" x="26.907" y="36.076" fill="#DBE2E8" stroke-width="2.4" rx="1.2"></rect>
          <rect width="7.219" height="4.807" x="26.907" y="50.496" fill="#F04546" stroke-width="2.4" transform="matrix(1 0 0 -1 0 105.799)" rx="1.2"></rect>
          <rect width="7.219" height="4.807" x="14.876" y="50.496" fill="#F04546" stroke-width="2.4" transform="matrix(1 0 0 -1 0 105.799)" rx="1.2"></rect>
        </g>
      </g>
      <g stroke-width="2.4" transform="translate(1.003 78.46)" stroke-linecap="round">
        <path d="M55.7639743,37.2396543 C54.1849828,32.189092 49.2310295,28.5013186 43.3602976,28.5013186 C37.5270442,28.5013186 32.5979025,32.1413299 30.9867399,37.1425403"></path>
        <path d="M21.371322,7.83585092 C20.8600774,6.2780258 16.7993882,3.27826027 12.2077572,3.67548332 C7.61612627,4.07270637 2.52087575,6.81528355 0.909713175,11.816494" transform="rotate(21 11.14 7.728)"></path>
        <path d="M41.9928066,23.1149402 C39.9474725,16.5727341 33.5304081,11.7958058 25.9258016,11.7958058 C16.896853,11.7958058 9.54011224,18.5282214 9.19044463,26.9566718" transform="rotate(19 25.592 19.376)"></path>
        <path fill="#FFFFFF" d="M30.4921955,31.3572712 C27.0448098,31.3572712 24.2501516,34.0165859 24.2501516,37.2970168" transform="rotate(80 27.371 34.327)"></path>
        <path d="M92.3860709,26.6920076 C83.1268924,26.6920076 75.6208452,33.8345417 75.6208452,42.6453039" transform="rotate(57 84.003 34.669)"></path>
        <path d="M8.73886145,13.4634234 C5.2914758,13.4634234 2.49681756,16.1227381 2.49681756,19.403169" transform="rotate(49 5.618 16.433)"></path>
        <path d="M60.8363266,33.7717164 C58.8381529,34.4555576 56.8399793,35.0434553 56.8399793,38.3238862" transform="rotate(23 58.838 36.048)"></path>
        <path d="M72.3148998,30.8785487 C71.2648915,29.9035269 69.8293498,29.302745 68.2463466,29.302745 C65.0287866,29.302745 62.4204389,31.7847721 62.4204389,34.8465076 C62.4204389,36.2958011 63.0048828,37.6152013 63.9617353,38.6029414" transform="rotate(35 67.368 33.953)"></path>
      </g>
      <g stroke-width="2.4" transform="translate(22.47 76.085)">
        <path d="M104.550352,35.870083 C102.505017,29.3278769 96.0879529,24.5509486 88.4833465,24.5509486 C79.4543979,24.5509486 72.0976571,31.2833642 71.7479895,39.7118146" stroke-linecap="round" transform="rotate(-19 88.15 32.131)"></path>
        <path d="M76.3254884 34.0545415L84.2320773 34.0545415M88.8095761 34.0545415L92.5548025 34.0545415M.588689121 24.5509486L8.49527805 24.5509486M27.2214097 35.6384737L30.9666361 35.6384737M59.680038 41.1822363L63.4252643 41.1822363M9.74368683 19.007186L13.4889132 19.007186M113.777752 13.4634234L117.522978 13.4634234" stroke-linecap="round"></path>
        <path d="M130.684218,18.957952 C129.105226,13.9073897 124.151273,10.2196163 118.280541,10.2196163 C112.447288,10.2196163 107.518146,13.8596276 105.906984,18.860838" stroke-linecap="round" transform="rotate(-35 118.296 14.589)"></path>
        <path d="M109.616389,22.9670164 C106.169003,22.9670164 103.374345,25.6263311 103.374345,28.906762"></path>
        <path d="M127.001207,1.49552613 C123.553821,1.49552613 120.759163,4.15484083 120.759163,7.43527175" stroke-linecap="round" transform="rotate(-27 123.88 4.465)"></path>
        <path fill="#FFFFFF" d="M109.616389,22.9670164 C106.169003,22.9670164 103.374345,25.6263311 103.374345,28.906762"></path>
      </g>
    </g>
  </g>
</svg>